<svg width="27.000000" height="27.000000" viewBox="0 0 27 27" fill="none" xmlns="http://www.w3.org/2000/svg" xmlns:xlink="http://www.w3.org/1999/xlink">
	<desc>
			Created with Pixso.
	</desc>
	<defs/>
	<path id="Vector" d="M13 -0.34C5.65 -0.31 -0.29 5.65 -0.29 13C-0.29 18.59 3.16 23.39 8.05 25.36L8.14 25.39C8.01 24.34 7.91 22.73 8.18 21.57L9.74 14.94C9.74 14.94 9.34 14.14 9.34 12.97C9.34 11.11 10.42 9.74 11.77 9.74C12.9 9.74 13.46 10.59 13.46 11.61C13.46 12.76 12.73 14.46 12.34 16.05C12.02 17.38 13.01 18.46 14.33 18.46C16.7 18.46 18.52 15.97 18.52 12.37C18.52 9.17 16.22 6.95 12.94 6.95C12.87 6.95 12.78 6.95 12.69 6.95C9.5 6.95 6.92 9.53 6.92 12.72C6.92 12.72 6.92 12.73 6.92 12.73C6.92 13.87 7.36 15.1 7.9 15.77C8.01 15.9 8.02 16.02 7.98 16.15L7.61 17.66C7.56 17.9 7.41 17.97 7.17 17.85C5.49 17.06 4.45 14.65 4.45 12.68C4.45 8.48 7.52 4.62 13.28 4.62C17.89 4.62 21.5 7.9 21.5 12.32C21.5 16.92 18.6 20.61 14.57 20.61C13.24 20.61 11.96 19.9 11.53 19.08L10.69 22.24C10.26 23.57 9.7 24.73 9 25.8L9.04 25.74C10.21 26.11 11.55 26.33 12.95 26.33C20.31 26.33 26.28 20.36 26.28 13C26.28 5.65 20.34 -0.31 13 -0.34L13 -0.34L13 -0.34Z" fill="#000000" fill-opacity="1.000000" fill-rule="nonzero"/>
</svg>
