<svg width="27.000000" height="21.000000" viewBox="0 0 27 21" fill="none" xmlns="http://www.w3.org/2000/svg" xmlns:xlink="http://www.w3.org/1999/xlink">
	<desc>
			Created with Pixso.
	</desc>
	<defs/>
	<path id="Vector" d="M26.33 1.84C25.33 2.33 24.33 2.5 23.16 2.66C24.33 2 25.16 1 25.49 -0.34C24.48 0.27 23.31 0.73 22.06 0.98L22 1C20.96 -0.02 19.56 -0.65 18 -0.67L18 -0.67C15.16 -0.67 12.66 1.84 12.66 4.84C12.66 5.33 12.66 5.66 12.84 6C8.26 5.82 4.22 3.66 1.52 0.36L1.5 0.33C1.08 1.06 0.83 1.93 0.83 2.86C0.83 2.97 0.83 3.08 0.84 3.18L0.83 3.17C0.87 5.05 1.84 6.69 3.31 7.65L3.33 7.66C2.49 7.66 1.66 7.33 0.82 7C0.82 9.66 2.66 11.84 5.15 12.33C4.66 12.5 4.15 12.5 3.66 12.5C3.33 12.5 2.99 12.5 2.66 12.33C3.33 14.5 5.33 16.17 7.83 16.17C6.03 17.62 3.72 18.5 1.2 18.5C1.13 18.5 1.06 18.5 0.98 18.5L1 18.5L-0.34 18.5C2.03 20.01 4.9 20.93 7.98 21L8 21C18 21 23.5 12.66 23.5 5.49L23.5 4.82C24.65 4.03 25.6 3.03 26.31 1.88L26.33 1.84L26.33 1.84Z" fill="#000000" fill-opacity="1.000000" fill-rule="nonzero"/>
</svg>
