<svg width="27.000000" height="27.000000" viewBox="0 0 27 27" fill="none" xmlns="http://www.w3.org/2000/svg" xmlns:xlink="http://www.w3.org/1999/xlink">
	<desc>
			Created with Pixso.
	</desc>
	<defs/>
	<path id="Vector" d="M14.36 -0.34C16.75 -0.34 17.26 -0.31 18.49 -0.26C19.9 -0.19 20.87 0.04 21.72 0.37C22.6 0.7 23.34 1.17 24.08 1.9C24.82 2.63 25.28 3.38 25.62 4.26C25.96 5.1 26.17 6.08 26.24 7.5C26.3 8.77 26.31 9.26 26.31 11.93L26.31 14.06C26.31 16.73 26.3 17.22 26.24 18.49C26.21 19.65 25.99 20.76 25.6 21.78L25.62 21.72C25.27 22.6 24.82 23.34 24.09 24.08C23.34 24.82 22.6 25.28 21.72 25.62C20.87 25.96 19.9 26.17 18.49 26.24C17.22 26.3 16.71 26.32 14.05 26.32L11.93 26.32C9.26 26.32 8.77 26.3 7.49 26.24C6.32 26.21 5.22 25.99 4.19 25.6L4.26 25.62C3.34 25.27 2.55 24.75 1.9 24.09L1.9 24.09C1.23 23.44 0.71 22.64 0.37 21.76L0.35 21.71C-0.01 20.76 -0.24 19.65 -0.26 18.5L-0.26 18.49C-0.31 17.45 -0.34 16.22 -0.34 15C-0.34 14.77 -0.34 14.55 -0.34 14.32L-0.34 14.35L-0.34 11.62C-0.34 9.22 -0.31 8.71 -0.26 7.49C-0.19 6.08 0.03 5.1 0.35 4.26C0.7 3.38 1.15 2.63 1.9 1.9C2.55 1.23 3.33 0.71 4.22 0.38L4.26 0.37C5.22 0 6.32 -0.23 7.48 -0.26L7.49 -0.26C8.71 -0.31 9.22 -0.34 11.62 -0.34L14.36 -0.34ZM14.38 2.06L11.6 2.06C9.29 2.06 8.79 2.09 7.59 2.14C6.3 2.19 5.59 2.41 5.13 2.6C4.5 2.84 4.06 3.13 3.59 3.6C3.13 4.06 2.83 4.5 2.59 5.13C2.42 5.6 2.19 6.3 2.14 7.61C2.09 8.81 2.06 9.29 2.06 11.61L2.06 14.38C2.06 16.7 2.09 17.18 2.14 18.38C2.19 19.67 2.41 20.38 2.59 20.85C2.83 21.48 3.13 21.91 3.59 22.38C4.06 22.85 4.5 23.14 5.13 23.38C5.59 23.57 6.3 23.78 7.61 23.83C8.9 23.9 9.37 23.91 12.25 23.91L13.73 23.91C16.62 23.91 17.08 23.9 18.38 23.83C19.67 23.78 20.38 23.57 20.85 23.38C21.48 23.14 21.92 22.85 22.38 22.38C22.85 21.91 23.14 21.47 23.38 20.85C23.57 20.38 23.78 19.67 23.83 18.38C23.9 17.07 23.91 16.62 23.91 13.73L23.91 12.26C23.91 9.37 23.9 8.9 23.83 7.59C23.78 6.3 23.57 5.59 23.38 5.13C23.16 4.53 22.81 4.01 22.38 3.6L22.38 3.59C21.96 3.16 21.45 2.82 20.88 2.6L20.85 2.59C20.12 2.32 19.27 2.15 18.39 2.14L18.38 2.14C17.35 2.09 16.15 2.06 14.94 2.06C14.74 2.06 14.55 2.06 14.35 2.06L14.38 2.06L14.38 2.06ZM12.99 6.14C16.78 6.14 19.84 9.21 19.84 12.99C19.84 16.77 16.78 19.84 12.99 19.84C9.21 19.84 6.15 16.77 6.15 12.99C6.15 9.21 9.21 6.14 12.99 6.14ZM12.99 8.54C10.54 8.54 8.55 10.53 8.55 12.99C8.55 15.45 10.54 17.44 12.99 17.44C15.45 17.44 17.44 15.45 17.44 12.99C17.44 10.53 15.45 8.54 12.99 8.54ZM20.1 4.28C20.99 4.28 21.7 4.99 21.7 5.87C21.7 6.76 20.99 7.47 20.1 7.47C19.22 7.47 18.5 6.76 18.5 5.87C18.5 4.99 19.22 4.28 20.1 4.28Z" fill="#000000" fill-opacity="1.000000" fill-rule="nonzero"/>
</svg>
